# xmcd CD database file
#
# Track frame offsets:
#	182
#	16757
#	33407
#	50370
#	69932
#	89745
#	108882
#	126132
#	146507
#	160195
#
# Disc length: 2360 seconds
#
# Revision: 0
# Processed by: cddbd v1.5.1PL0 Copyright (c) Steve Scherf et al.
# Submitted via: CDex 1.51
#
DISCID=7b09360a
DTITLE=Riccardo Fogli - I Successi di
DYEAR=1900
DGENRE=Musica Italiana
TTITLE0=Guardami
TTITLE1=Due Regali
TTITLE2=E io Poeta
TTITLE3=Una Volta i Piu'
TTITLE4=Maryanne
TTITLE5=Coplici
TTITLE6=Strana Donna
TTITLE7=Oh Mary
TTITLE8=Piu' che simpatia
TTITLE9=Una stanza bianca
EXTD=
EXTT0=
EXTT1=
EXTT2=
EXTT3=
EXTT4=
EXTT5=
EXTT6=
EXTT7=
EXTT8=
EXTT9=
PLAYORDER=
